<svg width="12" height="12" viewBox="0 0 12 12" fill="none" xmlns="http://www.w3.org/2000/svg">
<path fill-rule="evenodd" clip-rule="evenodd" d="M5.9916 3.66147L3.1831 6.46997L3.0511 7.94797L4.5396 7.81247L7.3396 5.00947L5.9916 3.66147ZM8.9831 3.36447L7.6356 2.01747L6.6616 2.99147L8.0091 4.33947L8.9831 3.36447ZM2.5456 8.99797C2.5301 8.99947 2.5151 8.99997 2.5001 8.99997C2.3681 8.99997 2.2406 8.94797 2.1466 8.85347C2.0416 8.74847 1.9886 8.60247 2.0021 8.45497L2.1916 6.36947C2.2126 6.14097 2.3136 5.92547 2.4761 5.76297L6.9741 1.26447C7.3251 0.912468 7.9621 0.929968 8.3321 1.29947L9.7011 2.66847H9.7016C10.0846 3.05197 10.0996 3.66047 9.7356 4.02547L5.2371 8.52397C5.0746 8.68697 4.8596 8.78747 4.6306 8.80847L2.5456 8.99797ZM2.5 10H9.5C9.775 10 10 10.225 10 10.5C10 10.775 9.775 11 9.5 11H2.5C2.225 11 2 10.775 2 10.5C2 10.225 2.225 10 2.5 10Z" fill="#271E4A"/>
</svg>
