<svg width="25" height="25" viewBox="0 0 25 25" fill="none" xmlns="http://www.w3.org/2000/svg">
<path fill-rule="evenodd" clip-rule="evenodd" d="M17.1318 14.5H9.51379L7.87679 8.5H20.1318L17.1318 14.5ZM21.8328 7.448C21.4658 6.854 20.8298 6.5 20.1318 6.5H7.33179L6.71479 4.237C6.59579 3.802 6.20079 3.5 5.74979 3.5H3.74979C3.19679 3.5 2.74979 3.948 2.74979 4.5C2.74979 5.052 3.19679 5.5 3.74979 5.5H4.98579L7.78479 15.763C7.90379 16.198 8.29879 16.5 8.74979 16.5H17.7498C18.1288 16.5 18.4748 16.286 18.6448 15.947L21.9208 9.394C22.2338 8.769 22.1998 8.042 21.8328 7.448ZM8.24999 18.5C7.42199 18.5 6.74999 19.171 6.74999 20C6.74999 20.829 7.42199 21.5 8.24999 21.5C9.07799 21.5 9.74999 20.829 9.74999 20C9.74999 19.171 9.07799 18.5 8.24999 18.5ZM16.75 20C16.75 19.171 17.422 18.5 18.25 18.5C19.078 18.5 19.75 19.171 19.75 20C19.75 20.829 19.078 21.5 18.25 21.5C17.422 21.5 16.75 20.829 16.75 20Z" fill="#2E3A59"/>
</svg>
