<svg width="37" height="37" viewBox="0 0 37 37" fill="none" xmlns="http://www.w3.org/2000/svg">
<g clip-path="url(#clip0_84_424)">
<path d="M35.6336 19.5464H31.1541C30.5348 19.5464 30.0342 20.047 30.0342 20.6663C30.0342 21.2856 30.5348 21.7861 31.1541 21.7861H35.6336C36.2528 21.7861 36.7534 21.2856 36.7534 20.6663C36.7534 20.047 36.2528 19.5464 35.6336 19.5464Z" fill="#415371"/>
<path d="M17.7158 2.74846V7.22792C17.7158 7.8472 18.2163 8.34778 18.8356 8.34778C19.4549 8.34778 19.9555 7.8472 19.9555 7.22792V2.74846C19.9555 2.12918 19.4549 1.6286 18.8356 1.6286C18.2163 1.6286 17.7158 2.12918 17.7158 2.74846Z" fill="#415371"/>
<path d="M0.917786 19.5464C0.917786 20.1657 1.41836 20.6663 2.03765 20.6663H6.5171C7.13639 20.6663 7.63696 20.1657 7.63696 19.5464C7.63696 18.9272 7.13639 18.4266 6.5171 18.4266H2.03765C1.41836 18.4266 0.917786 18.9272 0.917786 19.5464Z" fill="#415371"/>
<path d="M6.1666 6.87741C5.72873 7.31528 5.72873 8.02303 6.1666 8.4609L9.33357 11.6279C9.55194 11.8462 9.83863 11.956 10.1253 11.956C10.412 11.956 10.6987 11.8462 10.9171 11.6279C11.3549 11.19 11.3549 10.4823 10.9171 10.0444L7.75008 6.87741C7.31222 6.43954 6.60334 6.43954 6.1666 6.87741Z" fill="#415371"/>
<path d="M27.5459 11.956C27.8326 11.956 28.1193 11.8462 28.3377 11.6279L31.5046 8.4609C31.9425 8.02303 31.9425 7.31528 31.5046 6.87741C31.0668 6.43954 30.359 6.43954 29.9212 6.87741L26.7542 10.0444C26.3163 10.4823 26.3163 11.19 26.7542 11.6279C26.9737 11.8462 27.2592 11.956 27.5459 11.956Z" fill="#415371"/>
<path d="M35.6335 22.906H28.1932C28.6523 21.9205 28.9144 20.8723 28.9144 19.5464C28.9144 13.9885 24.3935 9.46765 18.8356 9.46765C13.2777 9.46765 8.75683 13.9885 8.75683 19.5464C8.75683 20.8723 9.01887 21.9205 9.47802 22.906H2.03765C1.41836 22.906 0.917786 23.4066 0.917786 24.0259C0.917786 24.6452 1.41836 25.1457 2.03765 25.1457H11.4299H26.2424H35.6335C36.2528 25.1457 36.7534 24.6452 36.7534 24.0259C36.7534 23.4066 36.2528 22.906 35.6335 22.906ZM12.0324 22.906C11.346 21.8197 10.9966 20.916 10.9966 19.5464C10.9966 15.2249 14.514 11.7074 18.8356 11.7074C23.1571 11.7074 26.6746 15.2249 26.6746 19.5464C26.6746 20.916 26.3252 21.8197 25.6388 22.906H12.0324Z" fill="#415371"/>
<path d="M19.6285 26.5948C19.4258 26.3921 19.1458 26.2656 18.8356 26.2656C18.5254 26.2656 18.2454 26.3921 18.0427 26.5948L14.6854 29.9533C14.2475 30.3912 14.2475 31.0989 14.6854 31.5368C15.1233 31.9747 15.831 31.9747 16.2689 31.5368L17.7157 30.0888V34.1046C17.7157 34.7239 18.2163 35.2245 18.8356 35.2245C19.4549 35.2245 19.9555 34.7239 19.9555 34.1046V30.0888L21.4023 31.5368C21.6207 31.7552 21.9074 31.8649 22.1941 31.8649C22.4808 31.8649 22.7674 31.7552 22.9858 31.5368C23.4237 31.0989 23.4237 30.3912 22.9858 29.9533L19.6285 26.5948Z" fill="#415371"/>
</g>
<defs>
<clipPath id="clip0_84_424">
<rect width="35.8356" height="35.8356" fill="white" transform="translate(0.917786 0.508728)"/>
</clipPath>
</defs>
</svg>
